<svg width="100" height="100" viewBox="0 0 100 100" xmlns="http://www.w3.org/2000/svg"><title>testimonials-amnesty-international</title><path d="M87.128 63.846c0 .459-.157.567-.558.48l-4.271-.829c-.247-.042-.382-.196-.382-.457v-7.548c0-.196.694-.218.805-.13.202.174.135.806.27.806.178 0 .647-.763.848-.763.425 0 .716.24.805.196.09-.043.09-.393.202-.48.157-.109.626-.109.871-.131a47.14 47.14 0 0 0 1.141-.087c.292 0 .27.197.27.611v8.332zm-5.211-16.381c0-.35.27-.48.513-.48h3.961c.49 0 .693.152.693.653l.02 6.676c0 .218-2.325.285-2.414.13-.134-.217-.068-.588-.201-.588-.067 0-.425.524-.627.524-.2 0-.535-.372-.67-.372-.09 0 .09.524-.09.742-.11.153-1.185.262-1.185.131v-7.416zm.605-5.52c0-3.01 4.562-4.732 4.874-6.26.336.306.38.806.38 1.243 0 1.832-3.265 4.908-3.265 7.133 0 .24.022.306.022.46 0 .216-.088.26-.133.26-.538 0-1.878-1.026-1.878-2.836zm6.126 7.09s.045 0 .314.065c.18.043.357.131.357.37 0 .132-.046.394.046.438.09.043.155-.044.2-.066.827-.589 1.029.457 1.208.457.157 0 .135-.719.357-.719.18-.065 1.902.741 1.902 1.266 0 .109-.225.13-.245.24-.022.152.402.218.334.501-.023.176-.425.393-.314.501.114.11.65-.108.696-.108.11 0 .133.174.133.24 0 .96-2.302 1.68-2.819 1.461-.157-.065-.177-.544-.267-.544-.135 0-.203.435-.47.5-.269.044-.67-.283-.783-.197-.112.089.268.7-.47.7-.18 0-.18-.198-.18-.35v-4.756zm0-2.858c0-.371-.268-.654-.557-.654h-2.417c-.67 0-.626-.48-.626-.59 0-2.9 4.317-3.38 4.317-7.176 0-1.658-1.073-2.771-2.326-3.752-.068-.044 0 .24 0 .35 0 1.766-6.731 2.682-6.731 6.762 0 3.554 3.622 3.708 3.622 4.253 0 .11-.222.153-.246.153H80.91c-.29 0-.558.283-.558.654v2.182c-.27.087-.603-.306-.784-.306-.088 0-.042.677-.2.764-.135.065-2.66.938-2.886.96-.356.065-.267-.546-.468-.546-.18 0-.18.611-.628.611-.267 0-.49-.24-.69-.24-.135 0 .289.502.289.654 0 .415-.827.567-.827.852 0 .151.783-.067.894-.067.402 0 .358.46.513.46.158 0 .269-.525.403-.611.269-.154.582.108.716.108.224 0-.18-.523.024-.611 0 0 2.727-1.134 2.905-1.048.156.089.136.35.314.437.179.088.447-.61.447-.174v5.345c-.313.196-.984.305-1.342.305-.178 0-.089-.567-.2-.567-.181 0-.36.48-.627.48-.246 0-.604-.588-.85-.588-.156 0 .29.74.022.87-1.028.504-2.66.982-2.66 2.575 0 .328.18.72.111.828-.067.153-.424.46-.404.59 0 .131.672.087.807.284.066.109.112.589.247.589.11 0 .4-.372.648-.24.782.46 2.146.96 2.772 1.287.156.087.067.567.156.61.18.088.536-.458 1.097-.151.113.043.194.149.194.345v1.785c-.001.374.185.464.365.508l6.664 1.331s.493.087.693.087c.247 0 .58-.099.58-.579l-.009-3.972c0-.043.032-.16.098-.16.359-.032.27 1.09.36 1.09.177 0 .291-.742.514-.742.313 0 .517.284.648.219.113-.065-.065-.416-.065-.633 0-.197.58-.283 1.297-.544.626-.219 1.14-.459 1.342-.459.155 0 .266.414.402.414.11 0 .134-.545.38-.545.2 0 .647.305.76.218.09-.065-.223-.48.023-.655.178-.109.603-.37.603-.48 0-.065-.828-.087-.871-.087-.157-.044-.336-.523-.45-.523-.13 0-.13.479-.334.633-.18.13-.626-.459-.826-.459-.113 0 .133.436.133.785 0 .35-2.168 1.026-2.459 1.026-.447 0-.471-.545-.561-.545-.133 0-.112.655-.67.655-.247 0-.315-.132-.315-.263v-5.235c0-.153.046-.393.337-.393.403 0 .403.786.536.786.247 0 .382-.808.85-.808.358 0 .65.48.873.48.157 0-.268-.5-.268-.741 0-.24 2.214-.153 3.064-1.615.245-.414.245-.915.335-1.112.133-.218.626-.176.626-.327 0-.066-.357-.153-.493-.24-.267-.152-.177-.938-.311-.938-.202 0-.403.545-.605.306-.357-.437-1.833-1.266-2.504-1.506-.247-.087.179-.807.068-.873-.112-.065-.404.437-.83.35-.335-.066-.177-.655-.356-.655-.09 0-.427.83-.672.764-.269-.066-.65-.131-.65-.131v-2.204zm-8.304 14.178c-.004.447-.35.415-.35.415-.358 0-.581-.697-.67-.675-.113.022.022.588-.113.675-.11.11-2.483-.96-2.66-1.133-.158-.153.067-.371 0-.525-.046-.13-.405-.087-.514-.151-.092-.088.109-.48-.023-.569-.114-.064-.358.394-.515.175-.069-.087-.089-.239-.089-.436 0-1.33 1.453-1.875 2.438-2.204.401-.13.266.372.401.394.157.044.179-.24.358-.24.136 0 .65.24.76.152.09-.065-.267-.392-.156-.523.135-.11 1.129-.375 1.137-.089l-.004 4.734zM5 63.063h1.895v-7.5H5zm2.842 0v-7.5H8.99l1.506 4.29h.02v-4.29h1.117v7.5h-1.077L8.98 58.377h-.02v4.686m4.868-6.379h-1.25v-1.121h3.79v1.121H15.12v6.379h-1.29m3.486 0v-7.5h2.727v1.121h-1.708v1.933h1.314v1.122h-1.314v2.202h1.823v1.121m2.116.001h-1.169v-7.5h1.64c1.31 0 1.981.612 1.981 2.212 0 1.205-.424 1.693-.82 1.89l.989 3.397h-1.188l-.83-3.105c-.15.021-.395.03-.603.03v3.076zm0-4.135h.415c.631 0 .868-.26.868-1.153 0-.894-.237-1.154-.868-1.154h-.415v2.307zm4.516 4.135v-7.5h1.146l1.506 4.29h.02v-4.29h1.117v7.5H29.5l-1.575-4.686h-.02v4.686m4.704 0h-1.083l1.2-7.5h1.39l1.2 7.5h-1.082l-.2-1.662h-1.226l-.2 1.661zm.361-2.785h.902l-.442-3.22h-.017l-.443 3.22zm3.595-3.594h-1.25v-1.121h3.79v1.121h-1.248v6.379h-1.292m3.488 0h1.894v-7.5h-1.894zm2.832-5.865c0-1.16.597-2.104 1.894-2.104s1.895.944 1.895 2.104v4.228c0 1.161-.598 2.105-1.895 2.105-1.297 0-1.894-.944-1.894-2.105v-4.228zm1.236 4.195c0 .614.16.91.658.91.5 0 .66-.296.66-.91v-4.161c0-.614-.16-.91-.66-.91-.498 0-.658.295-.658.91v4.16zm3.511 1.67v-7.5h1.147l1.505 4.29h.02v-4.29h1.117v7.5h-1.077l-1.575-4.686h-.02v4.686m5.649 0h-1.082l1.2-7.5h1.39l1.2 7.5h-1.084l-.198-1.662h-1.227l-.2 1.661zm.362-2.785h.902l-.442-3.22h-.02l-.441 3.22zm3.293 2.785v-7.5h1.104v6.378h1.738v1.121M7.166 52.75H5l2.4-12.188h2.779l2.4 12.188h-2.166l-.397-2.702H7.562l-.396 2.702zm.721-4.524h1.804l-.884-5.234h-.035l-.885 5.234zM23 40.563V52.75h-2.03v-9.52h-.037l-2.106 9.52h-1.129l-2.104-9.521h-.038v9.52h-2.03V40.563h3.064l1.654 7.124h.038l1.654-7.123m4.959 12.186V40.562h2.007l2.635 6.972h.035v-6.971h1.954V52.75h-1.884l-2.757-7.614h-.036v7.614m6.572 0V40.562h5.455v1.823H35.46v3.14h2.627v1.823H35.46v3.578h3.646v1.824m5.426-9.8c-.087-1.096-.66-1.416-1.146-1.416-.695 0-1.076.46-1.076 1.257 0 2.176 4.374 3.22 4.374 6.686 0 2.104-1.389 3.273-3.402 3.273-1.997 0-3.143-1.628-3.23-3.539l2.048-.3c.088 1.291.591 1.928 1.286 1.928.746 0 1.25-.406 1.25-1.167 0-2.53-4.374-3.201-4.374-6.863 0-2.035 1.214-3.184 3.332-3.184 1.753 0 2.795 1.29 2.986 3.095m2.29-.335h-2.186v-1.822h6.632v1.822H51.13V52.75h-2.26m9.344 0h-2.217v-5.065l-2.681-7.122h2.252l1.556 4.64h.035l1.484-4.64h2.252l-2.68 7.122" fill="#5D6D81" fill-rule="evenodd"/></svg>