<svg width="100" height="100" viewBox="0 0 100 100" xmlns="http://www.w3.org/2000/svg"><title>testimonials-htc</title><path d="M77.891 46.914c-3.664.023-7.135.052-8.103-.033-1.957-.169-3.265-1.438-3.417-3.306-.103-1.227-.103-2.242-.006-3.209.178-1.82 1.713-3.551 3.423-3.635.613-.032 2.252-.029 5.222-.016l8.64.016v-3.553s-6.882-.007-8.951-.016c-2.777-.013-4.175-.015-5.06.016-1.95.075-3.581.762-4.849 2.039-1.202 1.206-1.919 3.125-2.025 5.067-.06 1.049-.08 2.418 0 3.233.2 2.089.882 3.729 2.025 4.877 1.222 1.233 3.083 2.015 4.85 2.038 1.45.019 14.01 0 14.01 0v-3.551s-3.814.015-5.759.033M38.885 33.369v3.55h8.525V50.37h3.599V36.918h8.525v-3.55zm-3.738 6.712c-.026-1.911-.706-3.551-2.025-4.877-1.376-1.387-3.474-1.964-4.848-2.037-1.195-.067-5.902-.045-7.007 0-1.557.066-2.691.526-3.26.947-.006.004-.011.002-.011-.007v-6.459h-3.6v22.784h3.594s-.071-9.326.01-10.342c.142-1.804 1.523-3.223 3.285-3.375 1.412-.12 5.651-.087 6.981.002 1.826.125 3.174 1.54 3.28 3.446.035.702-.001 10.27-.001 10.27h3.602s.01-9.532 0-10.352M88.47 67.376c.744-.007 1.439-.152 1.437-.747 0-.101.015-.22-.027-.354-.1-.2-.233-.19-.364-.172l.047-.01s-.472.128-.854.133h-.011c-.394-.012-.507-.4-.527-.828-.007-.073-.01-.15-.007-.236.009-.655.214-1.65.347-2.208.04-.197.161-.333.395-.35 1.136-.087 2.547-.105 2.514-.778 0-.001-.002-.007 0-.01-.002-.581-.573-.71-1.015-.72h-.044c-.178.001-1.188.114-1.19.114l-.105.012.027-.103c.104-.386.209-.847.42-1.306a.645.645 0 0 0 .056-.267 1.107 1.107 0 0 0-.183-.598c-.108-.167-.25-.272-.353-.276h-.015c-.212.002-.413.142-.646.51-.298.493-.46 1.15-.776 1.884-.03.107-.124.187-.292.2-1.237.189-1.407.631-1.416.934v.014c.01.476.227.632.494.643h.007c.083.001.311-.084.472-.088h.019c.045.002.09.004.133.031.048.03.068.087.064.138a.524.524 0 0 1-.01.096c-.103.421-.275 1.47-.284 2.039 0 .054 0 .103.003.149.026.615.152 1.217.41 1.567.297.382.642.577 1.222.587h.052zm-6.797-3.934c-.024 1.303-.937 2.14-1.006 3.303-.006.078-.01.15-.011.221.007.34.046.53.485.633.091.02.173.03.25.031.513.008.725-.377.957-.867.225-.48.448-1.046 1.015-1.282l.1-.042v.111c.008 1.119.676 1.683 1.258 1.69.48.004.924-.351.94-1.168a2.516 2.516 0 0 0-.024-.375.149.149 0 0 0-.091-.03c-.123-.003-.287.095-.437.099-.08.005-.172-.064-.185-.178.004-.236.018-.497.022-.758.005-.4-.017-.798-.137-1.083-.123-.285-.319-.462-.716-.471-.384-.008-.702.282-.858.433l-.126.12.002-.173.003-.163c-.012-.266-.058-.354-.208-.537a.834.834 0 0 0-.533-.221c-.272-.004-.536.147-.71.428.008.094.01.187.01.28zm-3.775.866c-.01.001-.378 1.175-.997 1.226 0 0-.428.069-.419-.378-.01-.277.266-.718.407-.903.173-.221.48-.62.97-.698l.072-.011.011.073c.011.067.017.13.02.19.015.31-.06.495-.064.5zm1.404-1.571c-.028-.292-.54-.909-.891-.873a.29.29 0 0 0-.1.02l-.01.006c-1.215.308-3.08 1.893-2.978 3.8.009.2.04.408.097.62.124.444.484.773 1.167.744.09-.004.186-.017.283-.033.355-.096.772-.334.964-.604l.134-.185v.288c.03.57.468 1.063.876 1.045.141-.007.284-.07.423-.221.047-.051.051-.118.06-.194.084-.675.08-1.279.053-1.852-.023-.486-.067-.952-.09-1.413a8.279 8.279 0 0 1 .012-1.148zm-7.166 4.734h.001c.425.003.748-.176.911-.557.075-.181.108-.698.38-1.413.6-1.159 1.406-3.332 1.406-3.377.128-.717-.353-1.094-.948-1.007-.596.085-.594.755-.719 1.435-.261 1.364-1.408 2.637-1.61 3.974v.016c-.007.457.222.847.575.929h.004zm-4.084-9.154c-1.17 1.855-2.581 5.163-2.625 8.4-.002.077-.002.157-.002.239.002.326.194.551.668.58a.27.27 0 0 1 .038.002c.42 0 .502-.267.591-.416.064-.097.202-.892.282-1.637l.002-.008c.31-1.467.719-3.774 1.584-5.283.273-.466.776-.876.776-1.353a.755.755 0 0 0-.006-.094c-.044-.394-.43-.659-.796-.662a.611.611 0 0 0-.512.232zm3.513-.566c-.86 2.81-2.42 5.653-2.722 9.054 0 .32.096.575.435.642l.117.01c.273.003.54-.095.688-.28.4-.493.234-.956.384-1.676.221-1.028.774-2.739.774-2.74 0-.002.876-2.676 1.606-4.141.052-.113.123-.323.125-.535.001-.247-.074-.481-.355-.615l-.002-.002a.985.985 0 0 0-.424-.11.662.662 0 0 0-.626.393zm3.988-.087c-.005.477.33.981.83.988.156.004.33-.04.519-.145.248-.178.327-.383.33-.591.01-.383-.281-.784-.33-.83-.072-.073-.218-.175-.546-.18-.047 0-.1.001-.155.005h-.006c-.451.08-.633.395-.642.753zm-12.625 1.014c-.005.462.377.963.834.972h.013c.512-.004.778-.406.787-.833.001-.433-.256-.856-.833-.867-.034 0-.071 0-.111.006-.503.101-.68.397-.69.722zm.675 3.556c-.168 0-.318.075-.43.294-.258 1.061-1.055 2.416-1.074 3.782-.004.172.008.345.033.517.028.19.148.606.59.607h.052c.544-.04.626-.165.64-.39a1.848 1.848 0 0 1-.049-.446c.024-1.19 1.11-2.25 1.116-3.308 0-.078-.004-.156-.014-.234-.046-.379-.493-.818-.853-.822h-.01zm-6.136 4.968c.858.04.975-1.56 1.248-2.096.592-1.107 1.37-1.406 2.292-1.636 0 0 .417-.164.415-.599a.713.713 0 0 0-.005-.107c-.077-.439-.183-.513-.467-.562a2.131 2.131 0 0 0-.283-.022c-.92-.016-1.84.522-2.157 1.088l-.115.2-.022-.229c-.022-.319.009-1.095-.438-1.083h-.014c-.597-.014-.758.617-.81.826-.129.832-.23 1.72-.24 2.546-.008.51.02.998.095 1.426.142.245.468.248.501.248zm-4.063-1.572c-.436.333-.911.546-1.092.55l-.08-.003-.01-.203c0-.566.113-.725.322-.994.243-.312.754-.674 1.118-.674a.8.8 0 0 1 .285.056c.09.043.132.205.128.296-.01.288-.316.689-.671.972zm1.12-2.541a2.015 2.015 0 0 0-.64-.116c-.835-.015-1.399.587-1.973 1.104l-.17.154.05-.225c.43-1.938.685-3.812 1.093-5.85.006-.037.017-.111.017-.202 0-.336-.083-.867-.685-.898-.02-.002-.042-.002-.064-.002-.477-.007-.69.354-.794.686-.172.575-.183 1.346-.276 2.106-.294 2.27-.887 5.015-1.158 7.057.099.48.371.326.787.49l-.002.002c.031.01.031.023.037.027l.005.012.002.008.005.014c.002.01.008.022.013.038.015.031.035.075.071.12.07.087.189.292.416.214 2.137-.638 3.07-1.036 3.834-2.216.161-.27.238-.59.242-.913.013-.714-.337-1.429-.81-1.61zm-18.44 9.478c0 .075.01.153.03.229.096.439.758.488.76.488.165.012.328.018.489.018 3.68 0 5.962-3.145 5.964-6.98a9.891 9.891 0 0 0-.201-1.993v-.007c-.004 0-.026-.198-.145-.312-.146-.118-.265-.16-.368-.16-.256-.007-.48.3-.677.662-.203.36-.36.748-.61.873a1.2 1.2 0 0 1-.47.123c-.429-.007-.537-.419-.539-.901 0-.365.059-.804.11-1.234a.624.624 0 0 0 .006-.085c-.008-.197-.064-.473-.449-.508h-.045c-.498.002-.646.349-.712.599-.073.303-.254.769-.254 1.43a5.1 5.1 0 0 0 .131 1.165c.187.613.478.844.807.996.158.06.32.087.481.087.577.064 1.244-.183 1.3-.406-.065.702-.127 1.346-.292 1.993-.252.864-.56 1.313-.792 1.61-.878 1.017-2.265 1.727-3.761 1.727l-.145-.001c-.483.045-.61.293-.618.587zm1.5-13.62c-.31.179-.355.501-.503.93-.088.244-1.31 5.961-1.306 6.656v.01c-.057.824.5 1.053.5 1.053.061.013.263.018.263.018.452.007.638-.488.717-.755.172-.605.163-1.329.305-2.07.214-1.113.988-4.232 1.043-4.69.026-.2.06-.37.06-.545.039-.465-.402-.735-.656-.737a.853.853 0 0 0-.423.13zm-5.256 8.339c.49-.018.8-.187.803-.631v-.019c-.004-.243-.172-.397-.392-.57-.135-.112-.236-.213-.261-.647a3.308 3.308 0 0 1-.008-.206c.002-.72.202-2.077.332-2.648.034-.198.15-.363.395-.36.175-.001.481-.02.627-.023.158-.002.578.01.955-.075.383-.088.685-.259.683-.616v-.013c-.015-.597-.487-.618-.922-.626-.017 0-1.217.075-1.217.075l.035-.104c.122-.368.274-.863.521-1.335.104-.166.463-1.387-.54-1.387-.285.038-.548.337-.806.885-.304.67-.313.958-.674 1.814-.025.1-.12.21-.301.203-.333.005-.577.05-.824.05-.082 0-.183.013-.272-.001-.18 0-.368.13-.368.13-.064.078-.181.133-.216.432v.016c.007.48.198.751.432.748l.863.023a.251.251 0 0 1 .132.031.16.16 0 0 1 .062.134c0 .03-.005.06-.012.098-.103.452-.324 2.026-.324 2.569l.001.036c.022.976.31 2.024 1.268 2.017l.013-.002.015.002zm-5.68-2.944l.008-.063c.099-.577.712-1.05 1.032-1.062a.292.292 0 0 1 .287.292v.022c0 .51-.662.822-1.037.838-.033 0-.2-.003-.227-.009l-.064-.018zm2.954.874c-.04-.072-.105-.12-.16-.12-.043 0-.115-.005-.214.093-.43.423-.748.97-1.483.972l-.015.002c-.52.005-.699-.258-.794-.698l-.016-.066.066-.021c.47-.073 1.979-.53 1.968-1.727 0-.183-.033-.386-.11-.611-.17-.495-.592-.702-1.094-.704-.87-.004-1.765.595-1.992 1.545l-.01.113-.098-.055a.47.47 0 0 0-.223-.06c-.293 0-.553.334-.555.643.002.025.002.049.006.07.073.405.256.642.55.816l.037.02v.044l-.001.04c.005 1.304.881 1.852 1.85 1.857 1.111-.002 2.3-.75 2.326-1.984 0 0 0-.102-.038-.169zm-19.565.722s-.131-.018-.183-.056a.516.516 0 0 1-.214-.44c.008-.63.761-1.533 1.243-2.016.45-.444.676-.618.905-.624a.44.44 0 0 1 .218.064c.11.058.152.177.152.306-.024.796-1.396 2.732-2.12 2.766zm3.762-3.354c.001-.266-.1-.518-.103-.524-.336-.524-.77-.736-1.257-.738-.841-.002-1.85.668-2.636 1.587-.79.918-1.36 2.079-1.357 3.03 0 .601.221 1.11.748 1.446.16.077.32.113.477.113.857.007 1.69-1.06 2.21-1.524l.118-.1-.006.153c-.091 2.409-.887 6.591-.887 6.61.001.425.296.696.624.696a.66.66 0 0 0 .4-.142c.663-.644.619-1.917.805-3.148.304-1.974.176-4.121.57-5.957.122-.564.259-1.135.277-1.32 0 0 .017-.123.017-.182zm4.683 3.307c.209.945.25 1.507 1.48 1.685.094.002.233-.067.34-.187a.68.68 0 0 0 .187-.455.574.574 0 0 0-.018-.15c-.126-.363-.357-.383-.51-.791a2.45 2.45 0 0 1-.123-.837c0-.63.139-1.306.137-1.813-.013-.512-.11-.798-.61-.806a.951.951 0 0 0-.096.006c-.015-.004-.205.061-.333.288-.576.981-1.182 2.373-2.21 2.469-.187-.03-.254-.209-.249-.403.002-.633.543-1.894.805-2.648a.877.877 0 0 0 .031-.229c0-.424-.459-.687-.754-.685a.874.874 0 0 0-.783.486c-.247.453-.6 1.883-.598 3.129 0 .575.075 1.111.26 1.496.19.384.47.613.917.615.023 0 .047 0 .07-.002.84-.04 1.36-.805 1.944-1.213l.09-.062.023.107zm3.815 1.282c.289 0 .506-.07.554-.252.24-1.43.542-2.363.87-3.595a1.11 1.11 0 0 0 .027-.232c-.004-.408-.235-.733-.628-.733-.128 0-.278.037-.44.115-.756.498-.969 2.532-1.148 4.003-.002.018-.002.04-.002.063 0 .314.209.564.469.61.1.012.201.021.298.021zm1.123-8.842c-.168.167-.236.446-.236.642.002.535.516.949 1.012.949.316-.002.697-.158.783-.571.002-.02.002-.039.002-.057 0-.535-.463-1.148-1.018-1.148a.942.942 0 0 0-.543.185zm65.816 2.66l-.072-.019.072.018z" fill="#5D6D81" fill-rule="evenodd"/></svg>